<?xml version="1.0" encoding="UTF-8"?>
<svg version="1.1" xmlns="http://www.w3.org/2000/svg" width="482" height="480">
<path d="M0 0 C2.75157376 1.56633908 5.47494221 3.15673331 8.1640625 4.828125 C11.2636522 6.10894719 13.48849755 5.93512484 16.78710938 5.81542969 C22.05457177 6.25477231 26.85327032 9.43795182 31.49023438 11.80078125 C32.74610352 12.40986328 32.74610352 12.40986328 34.02734375 13.03125 C34.76718506 13.40830078 35.50702637 13.78535156 36.26928711 14.17382812 C43.75560529 16.43879913 52.50164891 14.64551583 60.14160156 13.79077148 C61.91642914 13.59816742 61.91642914 13.59816742 63.72711182 13.40167236 C66.94618434 13.05166711 70.164772 12.69752923 73.38323689 12.34199023 C76.76232383 11.97014962 80.14213281 11.60500638 83.52191162 11.23951721 C94.28624447 10.07421904 105.04942 8.89836992 115.81210494 7.7179547 C122.89865605 6.94077856 129.98565219 6.16796011 137.07357001 5.40333992 C140.43372398 5.04055513 143.79348865 4.6747336 147.15253448 4.30181694 C150.8929736 3.88764538 154.63430807 3.48272474 158.37597656 3.07983398 C159.48465088 2.95467911 160.5933252 2.82952423 161.7355957 2.70057678 C162.75598938 2.59256744 163.77638306 2.48455811 164.82769775 2.37327576 C165.71106937 2.27648749 166.59444099 2.17969923 167.50458145 2.07997799 C170.19394199 1.99378417 172.41161176 2.27040551 175 3 C176.82910951 5.59001064 177.30886908 8.04495966 177.6328125 11.16015625 C177.7167627 11.9493042 177.80071289 12.73845215 177.88720703 13.55151367 C177.96567871 14.38013916 178.04415039 15.20876465 178.125 16.0625 C178.20991699 16.90852783 178.29483398 17.75455566 178.38232422 18.6262207 C178.96534372 24.76082934 179.24929124 30.8369666 179 37 C176.27378642 38.49968748 174.06123271 39.29515314 170.9705658 39.61341858 C170.17847214 39.69886429 169.38637848 39.78431 168.57028198 39.87234497 C167.7104068 39.95709076 166.85053162 40.04183655 165.96459961 40.12915039 C165.05199875 40.22537186 164.13939789 40.32159332 163.19914246 40.42073059 C160.18424405 40.736899 157.16834201 41.0421742 154.15234375 41.34765625 C152.05766335 41.56582836 149.96306478 41.78478748 147.86854553 42.00450134 C142.3548297 42.58119635 136.84024901 43.14912747 131.32537842 43.71466064 C122.49400305 44.62139328 113.66383065 45.53967345 104.83398628 46.46117973 C101.74601806 46.78191826 98.65758952 47.09790108 95.56907654 47.41334534 C93.68137171 47.60883728 91.79368071 47.80446293 89.90600586 48.00024414 C89.04410645 48.08701416 88.18220703 48.17378418 87.29418945 48.26318359 C84.0477547 48.60303972 81.10713632 48.96428789 78 50 C78.84820312 50.72703125 79.69640625 51.4540625 80.5703125 52.203125 C95.5546875 65.046875 95.5546875 65.046875 97.28149414 66.52709961 C98.43418853 67.51505319 99.58702225 68.50284423 100.73999023 69.49047852 C103.69841927 72.02503544 106.65424689 74.56252184 109.60546875 77.10546875 C114.91644291 81.67710453 120.23680403 86.21953692 125.6875 90.625 C130.35945003 94.41454659 134.78659701 98.42238544 139.2109375 102.49609375 C142.9967187 105.89481329 146.92135722 109.0924253 150.8828125 112.28515625 C153.96255765 114.77963618 153.96255765 114.77963618 154.375 117.20703125 C153.85191272 121.10294172 151.67627956 123.02389801 149 125.6875 C147.98402421 126.73673007 146.97103332 127.78885807 145.9609375 128.84375 C145.45788086 129.36839844 144.95482422 129.89304687 144.43652344 130.43359375 C141.65552367 133.46603674 139.2620346 136.80771873 136.8515625 140.13671875 C134.53471504 142.46822981 133.28214178 142.97498368 130 143 C127.7109375 141.6640625 127.7109375 141.6640625 125.375 139.625 C124.50230469 138.88121094 123.62960937 138.13742187 122.73046875 137.37109375 C121.82941406 136.58863281 120.92835938 135.80617188 120 135 C118.23309119 133.55767888 116.46220467 132.12021779 114.6875 130.6875 C110.56771978 127.3125388 106.49477103 123.88692238 102.4375 120.4375 C97.83165777 116.52250037 93.16908257 112.69558392 88.43359375 108.9375 C80.29349391 102.45677846 72.30551574 95.78251176 64.27490234 89.16699219 C55.23093087 81.71758909 46.16712246 74.29790443 37 67 C35.51988469 67.58092208 34.04097333 68.16491162 32.5625 68.75 C31.65242187 69.10964844 30.74234375 69.46929687 29.8046875 69.83984375 C26.49904166 71.20722093 23.29847777 72.75180015 20.10546875 74.36328125 C18 75 18 75 15.734375 74.23046875 C11.14361151 73.84353297 8.43996679 77.1525164 5.0625 80 C4.37220703 80.58523438 3.68191406 81.17046875 2.97070312 81.7734375 C-2.21314439 85.95982431 -2.21314439 85.95982431 -6.13671875 86.16015625 C-9.63334848 84.74337722 -12.02497074 82.90520826 -14.875 80.4375 C-15.84179688 79.61121094 -16.80859375 78.78492188 -17.8046875 77.93359375 C-18.52914062 77.29550781 -19.25359375 76.65742188 -20 76 C-26.03396075 80.22377252 -31.30753686 85.00794004 -36.65283203 90.04760742 C-40.16659129 93.34403521 -43.73329082 96.48997095 -47.5 99.5 C-51.85703191 102.98562553 -55.94123272 106.67792109 -60 110.5 C-64.88221314 115.09750525 -69.88816559 119.41208483 -75.12890625 123.6015625 C-79.31364647 127.0973863 -83.27140949 130.8245287 -87.23046875 134.57226562 C-94.75087701 141.67008213 -94.75087701 141.67008213 -98.3515625 142.62109375 C-102.66318489 141.60996106 -104.66695972 138.40966318 -107.375 135.0625 C-107.94428223 134.37824951 -108.51356445 133.69399902 -109.10009766 132.98901367 C-110.22981825 131.62526342 -111.35287651 130.25596291 -112.46875 128.88085938 C-113.76981495 127.28274005 -115.10061084 125.70889882 -116.4375 124.140625 C-117.076875 123.37234375 -117.71625 122.6040625 -118.375 121.8125 C-118.91898438 121.15894531 -119.46296875 120.50539063 -120.0234375 119.83203125 C-121 118 -121 118 -120.875 115.9921875 C-117.82297527 109.0433812 -109.60221325 103.96481119 -103.85546875 99.3515625 C-100.98191458 96.98510612 -98.23717383 94.52241697 -95.5 92 C-91.94329756 88.72581577 -88.32838189 85.59357567 -84.5625 82.5625 C-80.03296699 78.90923511 -75.75346743 75.06411339 -71.49829102 71.1015625 C-67.27801795 67.19555777 -62.87441227 63.55477763 -58.375 59.97265625 C-55.95567922 58.03477781 -55.95567922 58.03477781 -53.8125 55.74609375 C-52 54 -52 54 -50 54 C-50 53.34 -50 52.68 -50 52 C-50.59143799 51.97639404 -51.18287598 51.95278809 -51.79223633 51.9284668 C-63.23321633 51.2289601 -74.43454392 48.89054332 -85.6875 46.8125 C-87.92123371 46.40309208 -90.15503964 45.99407797 -92.38891602 45.58544922 C-95.74328371 44.97177247 -99.09756023 44.35764071 -102.45140076 43.74108887 C-109.13327271 42.51471903 -115.82035196 41.3265528 -122.515625 40.17578125 C-124.78541524 39.78119018 -127.0550456 39.38569397 -129.32461548 38.98983765 C-130.72413001 38.74817958 -132.12434043 38.51051488 -133.52523804 38.27700806 C-135.43399752 37.95833691 -137.34014775 37.62415043 -139.24609375 37.2890625 C-140.29466553 37.11068848 -141.3432373 36.93231445 -142.42358398 36.74853516 C-145.19546559 35.9432107 -146.38765791 35.3857221 -148 33 C-148.14233398 31.12280273 -148.14233398 31.12280273 -147.80859375 28.99609375 C-147.68983887 28.20058105 -147.57108398 27.40506836 -147.44873047 26.58544922 C-147.30064941 25.73225098 -147.15256836 24.87905273 -147 24 C-146.85578613 23.11973145 -146.71157227 22.23946289 -146.56298828 21.33251953 C-146.09286499 18.56949689 -145.58309494 15.81642789 -145.0625 13.0625 C-144.89298828 12.11826172 -144.72347656 11.17402344 -144.54882812 10.20117188 C-144.37931641 9.30076172 -144.20980469 8.40035156 -144.03515625 7.47265625 C-143.8844165 6.66062744 -143.73367676 5.84859863 -143.57836914 5.01196289 C-143 3 -143 3 -141 1 C-135.15627272 0.24898835 -129.18409396 1.25571764 -123.42602539 2.25341797 C-122.62147415 2.38675537 -121.81692291 2.52009277 -120.98799133 2.6574707 C-118.35665366 3.09537828 -115.72719689 3.54362633 -113.09765625 3.9921875 C-111.2512744 4.30187334 -109.40479117 4.61095533 -107.55821228 4.91946411 C-103.69861603 5.56577355 -99.83984867 6.21674946 -95.98168945 6.87158203 C-91.0593804 7.70702587 -86.13582872 8.53482791 -81.21172428 9.35961723 C-76.48579936 10.1514188 -71.76042414 10.94647554 -67.03515625 11.7421875 C-66.14531603 11.89187862 -65.25547581 12.04156975 -64.33867073 12.19579697 C-55.53317247 13.67962419 -46.74223711 15.1727957 -38 17 C-37.82855469 16.278125 -37.65710938 15.55625 -37.48046875 14.8125 C-35.34194587 10.74987078 -32.21294892 9.25093536 -28.3125 7 C-26.91140306 6.16895084 -25.51165224 5.33562786 -24.11328125 4.5 C-23.4270166 4.09265625 -22.74075195 3.6853125 -22.03369141 3.265625 C-20.00959891 2.00597368 -18.09120089 0.65790909 -16.16796875 -0.75 C-9.80537354 -5.26893322 -6.5592797 -3.0797726 0 0 Z M-16 9.25 C-16.845625 9.85328125 -17.69125 10.4565625 -18.5625 11.078125 C-20.89562287 12.91770265 -22.92018806 14.88391227 -25 17 C-17.00356549 22.00571521 -9.00385293 27.0061543 -1 32 C0.18625977 32.74032471 0.18625977 32.74032471 1.39648438 33.49560547 C3.24180749 34.64564658 5.08901022 35.79255829 6.9375 36.9375 C7.91589844 37.54464844 8.89429688 38.15179688 9.90234375 38.77734375 C11.73933025 40.08392848 11.73933025 40.08392848 13 40 C13 32.41 13 24.82 13 17 C9.7825 15.185 6.565 13.37 3.25 11.5 C1.73841309 10.63858398 1.73841309 10.63858398 0.19628906 9.75976562 C-0.60583008 9.31310547 -1.40794922 8.86644531 -2.234375 8.40625 C-3.05131836 7.94541016 -3.86826172 7.48457031 -4.70996094 7.00976562 C-9.53568119 4.88192139 -12.06013055 6.39119229 -16 9.25 Z M-135 10 C-135.69761537 12.60183588 -136.38337774 15.20583602 -137.0625 17.8125 C-137.26166016 18.55048828 -137.46082031 19.28847656 -137.66601562 20.04882812 C-138.86176346 24.52507319 -138.86176346 24.52507319 -138 29 C-126.25721677 31.09320536 -114.51330165 33.17992751 -102.76790524 35.25842285 C-97.31385669 36.22379428 -91.86022033 37.19137894 -86.4074707 38.1640625 C-81.14346973 39.10299167 -75.87845928 40.03605349 -70.61270332 40.96508789 C-68.60573983 41.32023144 -66.59914648 41.67747344 -64.59293938 42.03686523 C-61.77898066 42.54058478 -58.96378822 43.03676983 -56.14819336 43.53125 C-55.32244308 43.68086182 -54.49669281 43.83047363 -53.6459198 43.98461914 C-45.0433392 45.74812606 -45.0433392 45.74812606 -37.15625 43.0234375 C-36.2796875 42.14945313 -35.403125 41.27546875 -34.5 40.375 C-33.56542969 39.46621094 -32.63085938 38.55742187 -31.66796875 37.62109375 C-30.78753906 36.75613281 -29.90710938 35.89117187 -29 35 C-27.61652689 33.79812267 -26.22293608 32.60761837 -24.8125 31.4375 C-23.884375 30.633125 -22.95625 29.82875 -22 29 C-22 28.67 -22 28.34 -22 28 C-35.9942709 25.64814694 -49.98932446 23.3010021 -63.98529339 20.95927429 C-70.48396703 19.87181092 -76.98238033 18.78283864 -83.48022461 17.69042969 C-89.7495449 16.63649674 -96.01951474 15.58651212 -102.28995705 14.53927612 C-104.68360832 14.13879305 -107.07702102 13.73688143 -109.47019005 13.33352661 C-112.81894556 12.76936264 -116.16850887 12.21025732 -119.51831055 11.65234375 C-120.51021393 11.48403046 -121.50211731 11.31571716 -122.52407837 11.14230347 C-123.43968033 10.99084869 -124.35528229 10.83939392 -125.29862976 10.68334961 C-126.09044993 10.55061142 -126.88227011 10.41787323 -127.69808483 10.28111267 C-130.15315907 9.98129603 -132.52911753 9.95216595 -135 10 Z M159.1736908 11.32185364 C158.23021286 11.4185585 157.28673492 11.51526337 156.31466675 11.61489868 C154.78013351 11.78389175 154.78013351 11.78389175 153.21459961 11.95629883 C151.58454231 12.12682518 151.58454231 12.12682518 149.92155457 12.30079651 C146.33096091 12.67856381 142.74167121 13.06742996 139.15234375 13.45703125 C136.65805162 13.72315179 134.16371191 13.98882666 131.66932678 14.2540741 C126.44266445 14.81164814 121.21660689 15.37458801 115.9909668 15.94165039 C109.95310709 16.59675106 103.91413962 17.24075654 97.87448114 17.8790434 C92.05862279 18.49401664 86.24373119 19.11772513 80.42920113 19.74512291 C77.95706274 20.01095427 75.48467341 20.27446247 73.01203728 20.53562355 C69.55916683 20.90142226 66.10751685 21.27713528 62.65600586 21.65551758 C61.63095947 21.76210693 60.60591309 21.86869629 59.54980469 21.97851562 C58.60914658 22.08367996 57.66848846 22.1888443 56.69932556 22.29719543 C55.88358031 22.38514279 55.06783506 22.47309015 54.22737026 22.56370258 C51.86875448 23.02570838 50.08869671 23.82965522 48 25 C50.39443843 27.08494093 52.79080078 29.16765854 55.1875 31.25 C55.86103516 31.83652344 56.53457031 32.42304688 57.22851562 33.02734375 C57.88916016 33.60097656 58.54980469 34.17460937 59.23046875 34.765625 C59.83270264 35.28930664 60.43493652 35.81298828 61.05541992 36.35253906 C62.01798706 37.16803223 62.01798706 37.16803223 63 38 C64.10749603 39.04483551 64.10749603 39.04483551 65.23736572 40.11077881 C68.64883363 42.44370341 70.09005823 42.33415569 74.14672852 41.875 C75.37265717 41.74733749 76.59858582 41.61967499 77.86166382 41.48814392 C79.20079769 41.32586656 80.53987707 41.16313897 81.87890625 41 C83.27734415 40.846118 84.67600227 40.69422585 86.07485962 40.54420471 C89.80531085 40.13864391 93.53215064 39.70598305 97.25890732 39.26793289 C101.08724791 38.82265523 104.91833877 38.40254427 108.74926758 37.98022461 C115.48417692 37.23443935 122.21662674 36.4688162 128.94818974 35.69346333 C135.11167238 34.98454877 141.27773969 34.30117416 147.4453125 33.62890625 C155.29908763 32.77121531 163.15029923 31.89441035 171 31 C170.34 24.73 169.68 18.46 169 12 C165.03380484 11.20676097 162.97669993 10.9173026 159.1736908 11.32185364 Z M21 17 C21 32.18 21 47.36 21 63 C27.56834601 61.88813835 27.56834601 61.88813835 39 56 C39 45.44 39 34.88 39 24 C36.40125 22.845 33.8025 21.69 31.125 20.5 C30.30789551 20.13455078 29.49079102 19.76910156 28.64892578 19.39257812 C28.0042334 19.10833984 27.35954102 18.82410156 26.6953125 18.53125 C26.03547363 18.23798828 25.37563477 17.94472656 24.69580078 17.64257812 C22.99053793 16.88188745 22.99053793 16.88188745 21 17 Z M-33.51733398 49.91137695 C-36.75009619 52.90328508 -40.06614787 55.73713047 -43.5 58.5 C-48.59384095 62.60153427 -53.39127427 66.95877227 -58.18359375 71.40234375 C-61.72887685 74.67226506 -65.34670802 77.85172191 -69 81 C-68.63648438 81.42410156 -68.27296875 81.84820312 -67.8984375 82.28515625 C-62.44921875 88.64257812 -62.44921875 88.64257812 -57 95 C-53.07636538 93.38383622 -50.28626689 90.68650524 -47.25 87.8125 C-46.16985004 86.8066693 -45.08912149 85.80145959 -44.0078125 84.796875 C-43.48735352 84.31154297 -42.96689453 83.82621094 -42.43066406 83.32617188 C-38.33340585 79.52816733 -34.0746034 75.91271713 -29.8203125 72.29296875 C-22.99472451 66.47907108 -16.28025539 60.58306566 -9.7109375 54.48046875 C-6.66633227 51.69469884 -3.52979447 49.04048331 -0.328125 46.4375 C1.33930581 44.95893818 1.33930581 44.95893818 1 42 C-1.08506826 40.44437846 -3.08199957 39.12330419 -5.3125 37.8125 C-5.90740234 37.44447266 -6.50230469 37.07644531 -7.11523438 36.69726562 C-17.45177791 30.47224108 -26.04850714 42.96410616 -33.51733398 49.91137695 Z M47 35 C44.36217249 50.45591534 44.36217249 50.45591534 47.14941406 65.35888672 C50.18183608 69.07463013 54.01147101 71.51459885 58.13720703 73.88671875 C60.89797101 75.53666419 63.25262826 77.59541862 65.6875 79.6875 C67.45761697 81.12588202 69.22844382 82.56339092 71 84 C72.83403254 85.499145 74.66735981 86.99915322 76.5 88.5 C77.86125 89.61375 77.86125 89.61375 79.25 90.75 C87.5 97.5 87.5 97.5 90.2734375 99.76953125 C92.02817784 101.20499935 93.78335155 102.63993796 95.5390625 104.07421875 C99.75282251 107.51779 103.96189052 110.96642092 108.15625 114.43359375 C118.95527348 123.37029291 118.95527348 123.37029291 130 132 C134.08332902 130.44533803 136.08208993 127.74912156 138.75 124.375 C139.54921875 123.37210937 140.3484375 122.36921875 141.171875 121.3359375 C141.77515625 120.56507813 142.3784375 119.79421875 143 119 C141.70735873 116.10125583 140.43512432 114.23397474 138.015625 112.1875 C137.4175 111.67574219 136.819375 111.16398437 136.203125 110.63671875 C135.23632812 109.82654297 135.23632812 109.82654297 134.25 109 C133.5796875 108.42894531 132.909375 107.85789062 132.21875 107.26953125 C130.8271391 106.08456934 129.43323372 104.90229706 128.03710938 103.72265625 C125.01137556 101.16398201 122.00663587 98.58105475 119 96 C118.42991211 95.51208984 117.85982422 95.02417969 117.27246094 94.52148438 C112.99998069 90.86483555 108.7469563 87.18624417 104.5 83.5 C91.03898553 71.78005291 91.03898553 71.78005291 77.3125 60.375 C72.6384262 56.58373077 68.210229 52.57262437 63.78125 48.5 C58.44844053 43.7064634 52.97138738 38.98092492 47 35 Z M6.625 50.484375 C5.325625 51.60585938 5.325625 51.60585938 4 52.75 C3.04480469 53.56855469 2.08960938 54.38710938 1.10546875 55.23046875 C-3.99385215 59.750656 -9.01933824 64.34964391 -14 69 C-9.765127 73.86226243 -9.765127 73.86226243 -4 76 C-0.95307643 74.43611337 1.60372585 72.34592684 4.25 70.1875 C4.9821875 69.61451172 5.714375 69.04152344 6.46875 68.45117188 C9.84514182 65.85307697 9.84514182 65.85307697 13 63 C13.07258946 60.81360547 13.08373783 58.62499611 13.0625 56.4375 C13.05347656 55.23996094 13.04445312 54.04242188 13.03515625 52.80859375 C13.02355469 51.88175781 13.01195312 50.95492187 13 50 C10.13187033 48.75183246 9.33311965 48.79180022 6.625 50.484375 Z M-74 85 C-74 89.33174693 -71.34177417 91.22353653 -68.5 94.1875 C-67.97535156 94.74630859 -67.45070313 95.30511719 -66.91015625 95.88085938 C-65.61338387 97.26015364 -64.30753741 98.63090644 -63 100 C-62.01 99.67 -61.02 99.34 -60 99 C-63.64943348 93.90114613 -67.35121812 89.22616534 -72 85 C-72.66 85 -73.32 85 -74 85 Z M-99 108 C-97.53417985 111.42280517 -95.61937745 113.56480483 -92.9375 116.125 C-89.09722222 119.80555556 -89.09722222 119.80555556 -88 122 C-87.34 122 -86.68 122 -86 122 C-87.58620127 118.12060491 -90.09920987 115.66638913 -93.0625 112.75 C-93.96097656 111.85796875 -94.85945313 110.9659375 -95.78515625 110.046875 C-97.61976269 107.88688161 -97.61976269 107.88688161 -99 108 Z M-110 116 C-108.57139081 120.49108752 -106.06922708 123.46169316 -102.875 126.8125 C-102.40707031 127.31458984 -101.93914062 127.81667969 -101.45703125 128.33398438 C-100.31098175 129.56189455 -99.15634689 130.78178215 -98 132 C-95.69 130.02 -93.38 128.04 -91 126 C-94.2269716 120.621714 -98.21878831 116.07748356 -103 112 C-106.13323425 112 -107.68020784 114.04649081 -110 116 Z " fill="#D3B73A" transform="translate(227,207)"/>
<path d="M0 0 C3.39331361 2.93837409 6.71291348 5.94349215 10 9 C10.65613281 9.59039062 11.31226563 10.18078125 11.98828125 10.7890625 C30.12939051 27.84095402 43.60538045 53.04996528 50 77 C50 77.99 50 78.98 50 80 C45.71 80.33 41.42 80.66 37 81 C36.3709375 79.35773438 35.741875 77.71546875 35.09375 76.0234375 C26.7680404 54.56375332 16.92018751 36.86509072 1 20 C0.36578125 19.31292969 -0.2684375 18.62585938 -0.921875 17.91796875 C-23.88223763 -6.13348549 -58.60229483 -20.14953328 -91.578125 -21.28515625 C-127.66787289 -21.9965346 -161.45623624 -11.978228 -189 12 C-189.94101563 12.79664063 -190.88203125 13.59328125 -191.8515625 14.4140625 C-212.15534435 31.98775745 -224.43328057 54.88514552 -233 80 C-234.6045556 79.85851011 -236.20863767 79.71164314 -237.8125 79.5625 C-239.15248047 79.44068359 -239.15248047 79.44068359 -240.51953125 79.31640625 C-243 79 -243 79 -246 78 C-244.80215461 71.69736166 -243.0275144 65.95421032 -240.5 60.0625 C-240.15106689 59.24692627 -239.80213379 58.43135254 -239.44262695 57.59106445 C-233.08009313 43.06031837 -225.36064468 30.01968997 -215 18 C-214.56123535 17.48824219 -214.1224707 16.97648437 -213.67041016 16.44921875 C-160.37628818 -45.18641876 -62.04164181 -52.88990537 0 0 Z " fill="#D4B93C" transform="translate(341,122)"/>
<path d="M0 0 C3.79048745 1.89524372 6.52456772 3.91974689 9.8125 6.5625 C39.51649428 29.72782623 75.94221485 38.19583036 113.18359375 34.57421875 C139.42296789 31.3123204 169.03690061 18.83834216 188 0 C191.60513403 2.06007659 194.80331012 4.3513141 198 7 C197.43793327 10.42291292 196.51481774 11.78261447 193.78125 13.8828125 C192.76780518 14.66640137 192.76780518 14.66640137 191.73388672 15.46582031 C190.9967041 16.01334961 190.25952148 16.56087891 189.5 17.125 C188.73316895 17.69831055 187.96633789 18.27162109 187.17626953 18.86230469 C167.93097033 33.00990242 146.5662538 42.69142229 123 47 C121.86820313 47.22300781 120.73640625 47.44601562 119.5703125 47.67578125 C80.49268634 54.18871894 38.9178879 44.76348772 6.58203125 21.93359375 C5.13309377 20.87913308 3.68894286 19.81805924 2.25 18.75 C1.58218506 18.2547583 0.91437012 17.7595166 0.22631836 17.24926758 C-3.39425186 14.47900749 -6.30495679 11.72950424 -9 8 C-6.03 5.36 -3.06 2.72 0 0 Z " fill="#D4B83C" transform="translate(148,344)"/>
<path d="M0 0 C1.77155654 0.11429397 3.54226229 0.24183037 5.3125 0.375 C6.79169922 0.47941406 6.79169922 0.47941406 8.30078125 0.5859375 C11 1 11 1 14 3 C14.59364519 5.57246249 15.02341838 8.01870393 15.375 10.625 C17.1736806 22.20099724 20.4453214 33.24319064 25.3984375 43.88671875 C26.1930742 46.67826715 25.95930805 48.26662911 25 51 C23.15234375 52.80078125 23.15234375 52.80078125 20.9375 54.3125 C19.83728516 55.08013672 19.83728516 55.08013672 18.71484375 55.86328125 C18.14894531 56.23839844 17.58304688 56.61351562 17 57 C4.90697482 41.78805601 1.76486855 18.76333929 0 0 Z " fill="#BA9716" transform="translate(90,253)"/>
<path d="M0 0 C-0.71703704 18.6071113 -6.35682796 37.52805815 -15 54 C-19.59306496 52.5140084 -22.43569245 50.14985318 -26 47 C-24.54810959 42.60394506 -23.08510584 38.21414974 -21.53515625 33.8515625 C-17.74401398 23.04617307 -15.11983397 12.24758963 -13 1 C-8.62426048 0.40667939 -4.42471556 -0.13827236 0 0 Z " fill="#EEDA62" transform="translate(395,255)"/>
<path d="M0 0 C3.11786066 0.46113514 4.84981386 1.4499536 7.12890625 3.58203125 C7.68900391 4.10216797 8.24910156 4.62230469 8.82617188 5.15820312 C9.39916016 5.70412109 9.97214844 6.25003906 10.5625 6.8125 C11.13935547 7.34681641 11.71621094 7.88113281 12.31054688 8.43164062 C19.83158195 15.48423753 19.83158195 15.48423753 20.4375 20.9375 C20.30629631 23.99511649 19.91785918 25.14848532 18.375 27.9375 C15.55599012 30.38558753 13.67852334 30.74919159 10 31 C10.103125 31.721875 10.20625 32.44375 10.3125 33.1875 C10 36 10 36 8.0625 38.8125 C4.52587946 41.33865753 2.595053 41.86666027 -1.67578125 41.60546875 C-6.17655654 40.43299788 -8.84981681 37.25737279 -12 34 C-12.83660156 33.24332031 -13.67320313 32.48664063 -14.53515625 31.70703125 C-15.78619141 30.55267578 -15.78619141 30.55267578 -17.0625 29.375 C-17.83722656 28.66085937 -18.61195312 27.94671875 -19.41015625 27.2109375 C-21 25 -21 25 -20.74609375 22.2265625 C-20.49988281 21.49179687 -20.25367187 20.75703125 -20 20 C-15.20922466 20.1966363 -13.26664931 22.44987524 -10.18359375 25.7578125 C-9.05730705 27.00691933 -7.93492729 28.2595596 -6.81640625 29.515625 C-5.27063912 31.166868 -3.83425378 32.67513282 -2 34 C0.84035037 34.0762972 0.84035037 34.0762972 3 33 C2.8033637 28.20922466 0.55012476 26.26664931 -2.7578125 23.18359375 C-4.00691933 22.05730705 -5.2595596 20.93492729 -6.515625 19.81640625 C-8.166868 18.27063912 -9.67513282 16.83425378 -11 15 C-10.8984375 12.09375 -10.8984375 12.09375 -10 10 C-5.20922466 10.1966363 -3.26664931 12.44987524 -0.18359375 15.7578125 C0.94269295 17.00691933 2.06507271 18.2595596 3.18359375 19.515625 C4.72936088 21.166868 6.16574622 22.67513282 8 24 C10.84035037 24.0762972 10.84035037 24.0762972 13 23 C12.85101921 18.08363393 10.276895 15.89783159 6.921875 12.6953125 C5.18721896 11.16514843 3.40535419 9.77030389 1.5625 8.375 C-1 6 -1 6 -1.4375 3.25 C-1 1 -1 1 0 0 Z " fill="#B99513" transform="translate(93,370)"/>
<path d="M0 0 C3.0625 2.1875 3.0625 2.1875 5 5 C5.3125 7.8125 5.3125 7.8125 5 10 C5.9075 10.061875 6.815 10.12375 7.75 10.1875 C11 11 11 11 13.375 13.0625 C15.46339838 16.83768168 16.11753558 19.85355765 15 24 C13.07743691 27.1080413 10.63725199 29.48877598 8 32 C7.15824219 32.83789062 6.31648438 33.67578125 5.44921875 34.5390625 C0.42736249 39.34516494 0.42736249 39.34516494 -2 41 C-4.30078125 40.74609375 -4.30078125 40.74609375 -6 40 C-6.40234375 37.875 -6.40234375 37.875 -6 35 C-4.10951267 32.70961664 -1.84806216 30.88588794 0.4375 29 C5.16919525 25.28316714 5.16919525 25.28316714 7.91015625 20.125 C7.95462891 19.073125 7.95462891 19.073125 8 18 C5.86920862 16.86789525 5.86920862 16.86789525 3 17 C0.33943989 19.01595885 -1.79134483 21.50818391 -4 24 C-8.57767549 29.16455696 -8.57767549 29.16455696 -11 31 C-13.9375 30.9375 -13.9375 30.9375 -16 30 C-15.8033637 25.20922466 -13.55012476 23.26664931 -10.2421875 20.18359375 C-8.99308067 19.05730705 -7.7404404 17.93492729 -6.484375 16.81640625 C-4.833132 15.27063912 -3.32486718 13.83425378 -2 12 C-1.9237028 9.15964963 -1.9237028 9.15964963 -3 7 C-7.79077534 7.1966363 -9.73335069 9.44987524 -12.81640625 12.7578125 C-13.94269295 14.00691933 -15.06507271 15.2595596 -16.18359375 16.515625 C-17.72936088 18.166868 -19.16574622 19.67513282 -21 21 C-23.90625 20.8984375 -23.90625 20.8984375 -26 20 C-25.81524536 14.30520986 -21.9198893 11.43535509 -18.0625 7.75 C-17.41603516 7.11320312 -16.76957031 6.47640625 -16.10351562 5.8203125 C-10.87510139 0.71677212 -7.50406971 -1.15148656 0 0 Z " fill="#B99513" transform="translate(98,69)"/>
<path d="M0 0 C3.18365282 1.06388764 6.20305756 2.40943215 9.25 3.8125 C10.0646875 4.16892578 10.879375 4.52535156 11.71875 4.89257812 C17.73915993 7.60873989 17.73915993 7.60873989 20 11 C20.80873924 16.81061561 18.50195872 21.46886515 16.25 26.6875 C15.72792969 27.96850586 15.72792969 27.96850586 15.1953125 29.27539062 C14.67324219 30.50612305 14.67324219 30.50612305 14.140625 31.76171875 C13.82641602 32.50381592 13.51220703 33.24591309 13.18847656 34.01049805 C11.75483858 36.4103986 10.40218666 37.58126076 8 39 C1.62672352 39.20895988 -3.24634377 37.24207626 -8.9375 34.625 C-9.60048096 34.32094238 -10.26346191 34.01688477 -10.9465332 33.70361328 C-14.27756998 32.09457862 -15.90679842 31.13980237 -18 28 C-18.80873924 22.18938439 -16.50195872 17.53113485 -14.25 12.3125 C-13.90195312 11.45849609 -13.55390625 10.60449219 -13.1953125 9.72460938 C-12.84726562 8.90412109 -12.49921875 8.08363281 -12.140625 7.23828125 C-11.82641602 6.49618408 -11.51220703 5.75408691 -11.18847656 4.98950195 C-8.41223625 0.34209392 -5.21536194 -0.66722353 0 0 Z M-4 6 C-5.33934716 8.95564708 -6.67044247 11.9149378 -8 14.875 C-8.3815625 15.71675781 -8.763125 16.55851562 -9.15625 17.42578125 C-9.5171875 18.23144531 -9.878125 19.03710938 -10.25 19.8671875 C-10.58515625 20.61081543 -10.9203125 21.35444336 -11.265625 22.12060547 C-12.12131741 23.97417611 -12.12131741 23.97417611 -12 26 C-9.37690901 27.17112946 -6.75171858 28.33705964 -4.125 29.5 C-3.37863281 29.83386719 -2.63226563 30.16773437 -1.86328125 30.51171875 C-1.14785156 30.82753906 -0.43242187 31.14335938 0.3046875 31.46875 C1.2944458 31.90864258 1.2944458 31.90864258 2.30419922 32.35742188 C4.00946207 33.11811255 4.00946207 33.11811255 6 33 C7.33934716 30.04435292 8.67044247 27.0850622 10 24.125 C10.3815625 23.28324219 10.763125 22.44148438 11.15625 21.57421875 C11.5171875 20.76855469 11.878125 19.96289062 12.25 19.1328125 C12.58515625 18.38918457 12.9203125 17.64555664 13.265625 16.87939453 C14.12131741 15.02582389 14.12131741 15.02582389 14 13 C11.37690901 11.82887054 8.75171858 10.66294036 6.125 9.5 C5.37863281 9.16613281 4.63226563 8.83226562 3.86328125 8.48828125 C3.14785156 8.17246094 2.43242187 7.85664062 1.6953125 7.53125 C1.03547363 7.23798828 0.37563477 6.94472656 -0.30419922 6.64257812 C-2.00946207 5.88188745 -2.00946207 5.88188745 -4 6 Z " fill="#E3CD53" transform="translate(326,25)"/>
<path d="M0 0 C4.78829451 3.58235367 6.68884747 8.04164114 8.8125 13.4375 C9.27946289 14.54448242 9.27946289 14.54448242 9.75585938 15.67382812 C11.44540264 19.85127025 12.75525871 23.43561041 12 28 C9.07033207 32.15921768 4.66630807 33.80848664 0.125 35.75 C-0.56980469 36.06582031 -1.26460938 36.38164062 -1.98046875 36.70703125 C-6.09451647 38.49675823 -9.4374607 39.64993437 -14 39 C-17.22109835 37.00890889 -18.67376465 35.22614201 -20.140625 31.76171875 C-20.48867188 30.94123047 -20.83671875 30.12074219 -21.1953125 29.27539062 C-21.71738281 27.99438477 -21.71738281 27.99438477 -22.25 26.6875 C-22.61351562 25.84509766 -22.97703125 25.00269531 -23.3515625 24.13476562 C-26.92023918 15.55518392 -26.92023918 15.55518392 -26 11 C-22.64200596 6.59786962 -18.63094012 4.60269322 -13.5625 2.6875 C-12.59860352 2.29208008 -12.59860352 2.29208008 -11.61523438 1.88867188 C-7.6217185 0.3277545 -4.26189365 -0.72106316 0 0 Z M-12.6875 9.5 C-13.38939453 9.83386719 -14.09128906 10.16773438 -14.81445312 10.51171875 C-16.54543137 11.33599411 -18.2730471 12.16732406 -20 13 C-17.83836487 19.93998648 -15.1063786 26.43117569 -12 33 C-5.79522136 31.06375702 0.10825719 28.74390859 6 26 C3.83836487 19.06001352 1.1063786 12.56882431 -2 6 C-6.07434009 6 -9.0960044 7.76293677 -12.6875 9.5 Z " fill="#E3CD53" transform="translate(334,416)"/>
<path d="M0 0 C2.34057617 0.12792969 2.34057617 0.12792969 5 1 C6.8527832 3.14550781 6.8527832 3.14550781 8.55078125 5.953125 C9.16630859 6.96503906 9.78183594 7.97695313 10.41601562 9.01953125 C11.04185547 10.08558594 11.66769531 11.15164062 12.3125 12.25 C12.95767578 13.30058594 13.60285156 14.35117187 14.26757812 15.43359375 C19.4156604 24.030074 19.4156604 24.030074 19 29 C17.35 29.33 15.7 29.66 14 30 C10.37 24.06 6.74 18.12 3 12 C2.4225 14.124375 1.845 16.24875 1.25 18.4375 C0.265625 22.05859375 0.265625 22.05859375 -1 25 C-4.18429161 26.73180772 -7.31360965 25.75795995 -10.75 25.0625 C-11.73484375 24.86785156 -12.7196875 24.67320313 -13.734375 24.47265625 C-14.48203125 24.31667969 -15.2296875 24.16070312 -16 24 C-15.3503125 25.09699219 -14.700625 26.19398437 -14.03125 27.32421875 C-13.18693452 28.77831764 -12.34321566 30.23276307 -11.5 31.6875 C-10.85611328 32.7693457 -10.85611328 32.7693457 -10.19921875 33.87304688 C-6.36599576 40.5355535 -6.36599576 40.5355535 -7 45 C-9.26220703 45.33081055 -9.26220703 45.33081055 -12 45 C-13.96044922 42.78442383 -13.96044922 42.78442383 -15.8046875 39.70703125 C-16.46984375 38.60166016 -17.135 37.49628906 -17.8203125 36.35742188 C-18.15708008 35.77532959 -18.49384766 35.1932373 -18.84082031 34.59350586 C-19.86953311 32.82191476 -20.93175459 31.07414262 -22 29.32617188 C-27.0798653 20.73522321 -27.0798653 20.73522321 -26.68798828 17.12768555 C-26.46095215 16.42554932 -26.23391602 15.72341309 -26 15 C-19.25390382 15.66355044 -12.65551466 16.71865793 -6 18 C-5.65066406 16.78441406 -5.30132812 15.56882812 -4.94140625 14.31640625 C-4.4819414 12.73172137 -4.0222967 11.14708863 -3.5625 9.5625 C-3.33240234 8.76005859 -3.10230469 7.95761719 -2.86523438 7.13085938 C-1.11328125 1.11328125 -1.11328125 1.11328125 0 0 Z " fill="#C09E1E" transform="translate(139,34)"/>
<path d="M0 0 C0.74652832 0.10916748 1.49305664 0.21833496 2.26220703 0.33081055 C3.10078391 2.93339379 3.93324047 5.53766701 4.76220703 8.14331055 C5.00068359 8.88129883 5.23916016 9.61928711 5.48486328 10.37963867 C6.46160839 13.46336251 7.26220703 16.07576863 7.26220703 19.33081055 C8.79941406 18.89768555 8.79941406 18.89768555 10.36767578 18.45581055 C11.72826082 18.08047674 13.08894311 17.70549531 14.44970703 17.33081055 C15.12324219 17.1400293 15.79677734 16.94924805 16.49072266 16.75268555 C20.1677586 15.74822695 23.44722523 15.09376313 27.26220703 15.33081055 C28.18597025 17.80056092 28.54097202 19.58934892 27.59765625 22.09838867 C26.53102787 24.13853123 25.38970993 26.11006378 24.19970703 28.08081055 C23.58204468 29.13945312 23.58204468 29.13945312 22.9519043 30.21948242 C19.91266029 35.38187155 16.72575728 40.44109254 13.26220703 45.33081055 C11.61220703 45.00081055 9.96220703 44.67081055 8.26220703 44.33081055 C8.81595483 39.22626262 11.28813499 35.36505497 13.82470703 31.01831055 C14.24945313 30.27774414 14.67419922 29.53717773 15.11181641 28.77416992 C16.15572356 26.95612937 17.20812895 25.14297307 18.26220703 23.33081055 C17.02470703 23.65823242 15.78720703 23.9856543 14.51220703 24.32299805 C10.63385661 25.34914493 7.26096117 25.4974253 3.26220703 25.33081055 C2.18798828 22.44995117 2.18798828 22.44995117 1.11376953 19.5690918 C0.19137573 17.14463469 -0.76861406 14.73690253 -1.73779297 12.33081055 C-2.15291138 13.09542603 -2.15291138 13.09542603 -2.57641602 13.87548828 C-3.84203803 16.18310835 -5.13314992 18.47544395 -6.42529297 20.76831055 C-6.86035156 21.57075195 -7.29541016 22.37319336 -7.74365234 23.19995117 C-11.10394253 29.09912728 -11.10394253 29.09912728 -14.56982422 30.3659668 C-15.64296875 30.34856445 -15.64296875 30.34856445 -16.73779297 30.33081055 C-17.78555299 27.09048811 -17.87532637 25.66330108 -16.55371094 22.46826172 C-12.92258692 16.30701714 -12.92258692 16.30701714 -11.67919922 14.27246094 C-10.61368982 12.51978579 -9.58524082 10.74876017 -8.55810547 8.97338867 C-7.56037109 7.31533203 -7.56037109 7.31533203 -6.54248047 5.6237793 C-5.93388184 4.60823975 -5.3252832 3.5927002 -4.69824219 2.54638672 C-2.73779297 0.33081055 -2.73779297 0.33081055 0 0 Z " fill="#C09F1F" transform="translate(129.73779296875,400.669189453125)"/>
<path d="M0 0 C3.38681292 3.75628342 4.62816148 7.79957755 6.17578125 12.55859375 C6.64274414 13.89954102 6.64274414 13.89954102 7.11914062 15.26757812 C9.769104 23.11263453 9.769104 23.11263453 9.36328125 27.62109375 C8.70328125 28.28109375 8.04328125 28.94109375 7.36328125 29.62109375 C4.87109375 29.52734375 4.87109375 29.52734375 2.36328125 28.62109375 C1.10546875 26.65234375 1.10546875 26.65234375 0.23828125 24.12109375 C-0.07882812 23.22261719 -0.3959375 22.32414062 -0.72265625 21.3984375 C-1.02429688 20.48191406 -1.3259375 19.56539062 -1.63671875 18.62109375 C-1.93835938 17.77675781 -2.24 16.93242187 -2.55078125 16.0625 C-4.63671875 10.12635076 -4.63671875 10.12635076 -4.63671875 6.62109375 C-5.84070313 7.05421875 -7.0446875 7.48734375 -8.28515625 7.93359375 C-9.86061817 8.49625872 -11.43614224 9.05874972 -13.01171875 9.62109375 C-13.80578125 9.90726563 -14.59984375 10.1934375 -15.41796875 10.48828125 C-16.17851562 10.75898438 -16.9390625 11.0296875 -17.72265625 11.30859375 C-18.42438965 11.55996094 -19.12612305 11.81132812 -19.84912109 12.0703125 C-21.63671875 12.62109375 -21.63671875 12.62109375 -23.63671875 12.62109375 C-23.30293213 13.53604614 -23.30293213 13.53604614 -22.96240234 14.46948242 C-21.96146738 17.24326874 -20.98644458 20.025495 -20.01171875 22.80859375 C-19.66109375 23.76830078 -19.31046875 24.72800781 -18.94921875 25.71679688 C-18.46582031 27.11381836 -18.46582031 27.11381836 -17.97265625 28.5390625 C-17.6689209 29.39266357 -17.36518555 30.24626465 -17.05224609 31.12573242 C-16.53766848 34.21591912 -17.2632808 35.8547211 -18.63671875 38.62109375 C-20.28671875 38.62109375 -21.93671875 38.62109375 -23.63671875 38.62109375 C-32.48411766 17.95384966 -32.48411766 17.95384966 -31.63671875 9.62109375 C-29.64181422 6.23926305 -27.85267425 4.97500697 -24.1796875 3.69921875 C-23.31408203 3.39628906 -22.44847656 3.09335938 -21.55664062 2.78125 C-20.65494141 2.48089844 -19.75324219 2.18054688 -18.82421875 1.87109375 C-17.93412109 1.55527344 -17.04402344 1.23945313 -16.12695312 0.9140625 C-5.32565681 -2.78512126 -5.32565681 -2.78512126 0 0 Z M-16.63671875 4.30859375 C-17.84714844 4.67500977 -17.84714844 4.67500977 -19.08203125 5.04882812 C-22.64649925 6.2105153 -25.36629787 7.42143364 -28.3984375 9.66015625 C-30.45143903 14.56922614 -28.27505453 18.52509859 -26.44921875 23.30859375 C-26.10568359 24.27087891 -25.76214844 25.23316406 -25.40820312 26.22460938 C-23.70691575 31.00061895 -23.70691575 31.00061895 -21.63671875 35.62109375 C-20.64671875 35.12609375 -20.64671875 35.12609375 -19.63671875 34.62109375 C-19.85400635 33.96512207 -20.07129395 33.30915039 -20.29516602 32.63330078 C-21.27087798 29.67337005 -22.23517366 26.70984379 -23.19921875 23.74609375 C-23.54146484 22.71355469 -23.88371094 21.68101562 -24.23632812 20.6171875 C-24.55537109 19.63105469 -24.87441406 18.64492187 -25.203125 17.62890625 C-25.50162354 16.7177002 -25.80012207 15.80649414 -26.10766602 14.86767578 C-26.63671875 12.62109375 -26.63671875 12.62109375 -25.63671875 10.62109375 C-22.89501174 9.4855799 -20.18702635 8.46347274 -17.38671875 7.49609375 C-16.62230469 7.21894531 -15.85789062 6.94179687 -15.0703125 6.65625 C-11.15240619 5.28261445 -7.85130922 4.23335143 -3.63671875 4.62109375 C-0.62944092 11.85135748 1.9565466 19.17045777 4.36328125 26.62109375 C5.02328125 26.62109375 5.68328125 26.62109375 6.36328125 26.62109375 C5.59111347 21.89392026 4.06443204 17.50157843 2.48828125 12.99609375 C2.23175781 12.23296875 1.97523438 11.46984375 1.7109375 10.68359375 C1.45441406 9.94882813 1.19789063 9.2140625 0.93359375 8.45703125 C0.70430176 7.7923584 0.47500977 7.12768555 0.23876953 6.44287109 C-0.79130876 4.29941202 -1.74293876 3.06591969 -3.63671875 1.62109375 C-8.43128976 1.62109375 -12.11912626 2.83279876 -16.63671875 4.30859375 Z " fill="#F8E872" transform="translate(455.63671875,152.37890625)"/>
<path d="M0 0 C2.5 0.125 2.5 0.125 3.5 1.125 C3.3044658 7.66264352 0.57157231 11.76791525 -3.0625 17.0625 C-3.58263672 17.84173828 -4.10277344 18.62097656 -4.63867188 19.42382812 C-5.91473625 21.33207119 -7.20181233 23.23176978 -8.5 25.125 C-6.025 26.115 -6.025 26.115 -3.5 27.125 C-2.56027344 25.64386719 -2.56027344 25.64386719 -1.6015625 24.1328125 C-0.77617582 22.83845611 0.04935239 21.54418996 0.875 20.25 C1.2875 19.59902344 1.7 18.94804687 2.125 18.27734375 C3.78002854 15.68802491 5.31997379 13.30502621 7.5 11.125 C10.125 11.5 10.125 11.5 12.5 12.125 C13.23828125 13.7109375 13.23828125 13.7109375 13.5 16.125 C12.31783714 18.48932573 11.13209206 20.55989089 9.6875 22.75 C9.31818359 23.33523438 8.94886719 23.92046875 8.56835938 24.5234375 C7.02376489 26.94154593 5.53405306 29.09094694 3.5 31.125 C4.13808594 31.50011719 4.77617187 31.87523437 5.43359375 32.26171875 C6.25988281 32.77347656 7.08617187 33.28523438 7.9375 33.8125 C8.76121094 34.31136719 9.58492188 34.81023437 10.43359375 35.32421875 C12.5 37.125 12.5 37.125 13.34765625 39.70703125 C13.5 42.125 13.5 42.125 12.5 44.125 C6.33515512 44.93334459 2.91801097 42.28183514 -1.9375 38.9375 C-2.66259766 38.45474609 -3.38769531 37.97199219 -4.13476562 37.47460938 C-8.65510832 34.44886337 -13.08734973 31.30513135 -17.5 28.125 C-17.26738534 21.04963739 -13.90706795 16.48202538 -10 10.75 C-9.39285156 9.83605469 -8.78570312 8.92210937 -8.16015625 7.98046875 C-2.93375557 0.14668778 -2.93375557 0.14668778 0 0 Z M-1.5 3.125 C-2.79332611 4.75412802 -2.79332611 4.75412802 -4.03125 6.88671875 C-4.51207031 7.67626953 -4.99289062 8.46582031 -5.48828125 9.27929688 C-5.98714844 10.11525391 -6.48601562 10.95121094 -7 11.8125 C-7.49886719 12.62912109 -7.99773437 13.44574219 -8.51171875 14.28710938 C-10.85374164 18.16431885 -12.89199795 21.87787858 -14.5 26.125 C-8.92341944 30.27777276 -3.29792866 34.3480172 2.5 38.1875 C3.386875 38.77660156 4.27375 39.36570312 5.1875 39.97265625 C7.56320255 41.496238 7.56320255 41.496238 10.5 40.125 C9.48679687 39.44953125 8.47359375 38.7740625 7.4296875 38.078125 C4.7421875 36.28645833 2.0546875 34.49479167 -0.6328125 32.703125 C-1.60976074 32.0544043 -1.60976074 32.0544043 -2.60644531 31.39257812 C-3.83105915 30.57280053 -5.04965557 29.74392986 -6.26074219 28.90429688 C-9.11324536 26.77212647 -9.11324536 26.77212647 -12.5 26.125 C-12.17725098 25.60591064 -11.85450195 25.08682129 -11.52197266 24.55200195 C-10.05222171 22.18301289 -8.5885697 19.81031238 -7.125 17.4375 C-6.61710937 16.62087891 -6.10921875 15.80425781 -5.5859375 14.96289062 C-5.09609375 14.16689453 -4.60625 13.37089844 -4.1015625 12.55078125 C-3.65119629 11.82286377 -3.20083008 11.09494629 -2.73681641 10.3449707 C-1.43083599 8.00085702 -0.44494422 5.63392333 0.5 3.125 C-0.16 3.125 -0.82 3.125 -1.5 3.125 Z M8.5 14.125 C7.16101601 16.07967752 5.82870953 18.0383579 4.5 20 C3.7575 21.09054687 3.015 22.18109375 2.25 23.3046875 C0.32425144 25.85504833 0.32425144 25.85504833 0.5 28.125 C1.16 28.125 1.82 28.125 2.5 28.125 C3.96582355 25.98218967 5.31123514 23.85793604 6.625 21.625 C6.99753906 21.00496094 7.37007813 20.38492187 7.75390625 19.74609375 C8.67578953 18.20962162 9.58873475 16.66779325 10.5 15.125 C9.84 14.795 9.18 14.465 8.5 14.125 Z " fill="#F4E26B" transform="translate(417.5,331.875)"/>
<path d="M0 0 C1.2065625 0.0309375 1.2065625 0.0309375 2.4375 0.0625 C3.81093795 2.82887265 4.53655027 4.46767463 4.02197266 7.55786133 C3.7182373 8.4114624 3.41450195 9.26506348 3.1015625 10.14453125 C2.77929688 11.07587891 2.45703125 12.00722656 2.125 12.96679688 C1.774375 13.92650391 1.42375 14.88621094 1.0625 15.875 C0.71960938 16.85404297 0.37671875 17.83308594 0.0234375 18.84179688 C-0.82389139 21.25433052 -1.68617488 23.66037927 -2.5625 26.0625 C-1.79977783 26.26214355 -1.03705566 26.46178711 -0.2512207 26.66748047 C5.46020843 28.17040625 10.94748417 29.88721071 16.4375 32.0625 C16.685 30.825 16.9325 29.5875 17.1875 28.3125 C20.62308282 12.87691718 20.62308282 12.87691718 24.4375 9.0625 C27.0625 9.4375 27.0625 9.4375 29.4375 10.0625 C30.94089891 15.79698362 29.26179147 19.63906809 27.3125 25.0625 C27.01601563 25.95195312 26.71953125 26.84140625 26.4140625 27.7578125 C24.60320617 32.89880293 22.91953473 36.66936085 18.4375 40.0625 C12.12909802 40.3779201 6.4824314 38.24221271 0.5625 36.25 C-0.56236816 35.87814575 -0.56236816 35.87814575 -1.70996094 35.4987793 C-4.73505944 34.4213704 -7.10657523 33.44835073 -9.5703125 31.36328125 C-12.62383472 24.28247578 -9.65066628 17.39141317 -7.125 10.625 C-6.79951172 9.71556641 -6.47402344 8.80613281 -6.13867188 7.86914062 C-3.31769556 0.0809194 -3.31769556 0.0809194 0 0 Z M-0.5625 3.0625 C-1.99311108 6.61200554 -3.37561322 10.17838802 -4.75 13.75 C-5.15669922 14.75740234 -5.56339844 15.76480469 -5.98242188 16.80273438 C-6.35302734 17.77919922 -6.72363281 18.75566406 -7.10546875 19.76171875 C-7.45633545 20.65721436 -7.80720215 21.55270996 -8.16870117 22.4753418 C-8.82172618 25.166417 -8.82172618 25.166417 -7.28881836 27.81518555 C-5.30094457 30.40299183 -3.98773566 31.11265505 -0.9375 32.1875 C-0.05320312 32.50332031 0.83109375 32.81914062 1.7421875 33.14453125 C3.07636719 33.59892578 3.07636719 33.59892578 4.4375 34.0625 C5.24445313 34.37574219 6.05140625 34.68898438 6.8828125 35.01171875 C8.02363281 35.43904297 8.02363281 35.43904297 9.1875 35.875 C10.20070313 36.25591797 10.20070313 36.25591797 11.234375 36.64453125 C14.43828597 37.25236542 16.34442352 37.17715921 19.4375 36.0625 C20.87385767 33.37393308 21.80008648 31.17642545 22.6875 28.3125 C23.17180775 26.88018559 23.65618127 25.44789342 24.140625 24.015625 C24.36041016 23.33306641 24.58019531 22.65050781 24.80664062 21.94726562 C25.34050905 20.35227173 25.96551281 18.78822908 26.609375 17.234375 C27.61563742 14.98270928 27.61563742 14.98270928 27.4375 12.0625 C26.7775 12.0625 26.1175 12.0625 25.4375 12.0625 C25.23068604 12.65788574 25.02387207 13.25327148 24.81079102 13.86669922 C23.87525366 16.55745283 22.93765265 19.24748282 22 21.9375 C21.67451172 22.87464844 21.34902344 23.81179688 21.01367188 24.77734375 C20.70107422 25.67324219 20.38847656 26.56914062 20.06640625 27.4921875 C19.77838135 28.31960449 19.49035645 29.14702148 19.19360352 29.99951172 C18.4375 32.0625 18.4375 32.0625 17.4375 34.0625 C12.24530071 33.45561956 7.51897784 32.33312901 2.5625 30.6875 C1.88703125 30.47867187 1.2115625 30.26984375 0.515625 30.0546875 C-1.4296875 29.4140625 -1.4296875 29.4140625 -4.5625 28.0625 C-5.75128413 24.49614762 -5.28263686 23.45870485 -4.12890625 19.95703125 C-3.80986328 18.97412109 -3.49082031 17.99121094 -3.16210938 16.97851562 C-2.81986328 15.95435547 -2.47761719 14.93019531 -2.125 13.875 C-1.78662109 12.83923828 -1.44824219 11.80347656 -1.09960938 10.73632812 C-0.26179252 8.1756766 0.58418356 5.6180198 1.4375 3.0625 C0.7775 3.0625 0.1175 3.0625 -0.5625 3.0625 Z " fill="#F8E873" transform="translate(434.5625,288.9375)"/>
<path d="M0 0 C2.07397461 2.03198242 2.07397461 2.03198242 3.90234375 4.85546875 C4.89524414 6.37817383 4.89524414 6.37817383 5.90820312 7.93164062 C6.57787109 9.00607422 7.24753906 10.08050781 7.9375 11.1875 C8.98260742 12.77014648 8.98260742 12.77014648 10.04882812 14.38476562 C15.0817716 22.25960807 15.0817716 22.25960807 14.68579102 25.8449707 C14.45947998 26.55613037 14.23316895 27.26729004 14 28 C12.35 28.33 10.7 28.66 9 29 C4.24505598 22.92133531 0.07127643 16.55258692 -4 10 C-5.65 10.99 -7.3 11.98 -9 13 C-8.46375 13.61875 -7.9275 14.2375 -7.375 14.875 C-5.35062907 17.53864597 -3.44873779 20.19746716 -1.625 23 C-1.08101563 23.825 -0.53703125 24.65 0.0234375 25.5 C1 28 1 28 0.1640625 30.8125 C-0.41214844 31.8953125 -0.41214844 31.8953125 -1 33 C-4.2947636 32.7056225 -5.65258928 32.38286079 -7.9140625 29.890625 C-8.47867187 29.01921875 -9.04328125 28.1478125 -9.625 27.25 C-10.47964844 25.95835937 -10.47964844 25.95835937 -11.3515625 24.640625 C-12.93091925 22.11066016 -14.47778317 19.56470471 -16 17 C-16.51949219 17.3609375 -17.03898437 17.721875 -17.57421875 18.09375 C-24.63665212 22.79333598 -24.63665212 22.79333598 -29 22 C-30 21 -30 21 -30.3203125 18.640625 C-30 16 -30 16 -28.3046875 14.296875 C-27.10199219 13.53117187 -27.10199219 13.53117187 -25.875 12.75 C-24.97007812 12.16605469 -24.06515625 11.58210938 -23.1328125 10.98046875 C-21.58207031 10.00013672 -21.58207031 10.00013672 -20 9 C-18.80726747 8.18743849 -17.61726137 7.3708638 -16.4296875 6.55078125 C-15.20370528 5.7204967 -13.97714736 4.89106153 -12.75 4.0625 C-12.17233887 3.66063477 -11.59467773 3.25876953 -10.99951172 2.84472656 C-7.13813995 0.30000838 -4.59096851 -0.62132854 0 0 Z M-9.59765625 5.80859375 C-10.92313477 6.68161133 -10.92313477 6.68161133 -12.27539062 7.57226562 C-13.19513672 8.18779297 -14.11488281 8.80332031 -15.0625 9.4375 C-16.88623451 10.64526277 -18.71043066 11.85232884 -20.53515625 13.05859375 C-21.343479 13.59798584 -22.15180176 14.13737793 -22.98461914 14.69311523 C-25 16 -25 16 -27 17 C-27 17.66 -27 18.32 -27 19 C-21.06891161 17.05053868 -16.16204651 13.22624055 -11.0625 9.72460938 C-10.32773437 9.23412109 -9.59296875 8.74363281 -8.8359375 8.23828125 C-8.17126465 7.78493408 -7.5065918 7.33158691 -6.82177734 6.86450195 C-5 6 -5 6 -2 7 C-0.58959961 8.85766602 -0.58959961 8.85766602 0.84765625 11.25390625 C1.37037109 12.10791016 1.89308594 12.96191406 2.43164062 13.84179688 C2.96982422 14.73962891 3.50800781 15.63746094 4.0625 16.5625 C5.13018059 18.33858221 6.20407115 20.11095126 7.28515625 21.87890625 C7.99490601 23.06335327 7.99490601 23.06335327 8.71899414 24.27172852 C9.14172607 24.84205811 9.56445801 25.4123877 10 26 C10.66 26 11.32 26 12 26 C10.0298892 20.72455187 7.1632267 16.35886829 4.0625 11.6875 C3.52431641 10.85154297 2.98613281 10.01558594 2.43164062 9.15429688 C1.90892578 8.36474609 1.38621094 7.57519531 0.84765625 6.76171875 C0.37336182 6.03944092 -0.10093262 5.31716309 -0.58959961 4.57299805 C-1.05503174 4.05390869 -1.52046387 3.53481934 -2 3 C-5.58443265 3 -6.64907858 3.84786444 -9.59765625 5.80859375 Z M-12 16 C-10.6744419 19.62276315 -9.05653045 22.63505348 -6.875 25.8125 C-6.33617187 26.60269531 -5.79734375 27.39289063 -5.2421875 28.20703125 C-4.83226562 28.79871094 -4.42234375 29.39039063 -4 30 C-3.67 29.01 -3.34 28.02 -3 27 C-4.35601007 24.19213087 -4.35601007 24.19213087 -6.3125 21.3125 C-7.26576172 19.82169922 -7.26576172 19.82169922 -8.23828125 18.30078125 C-8.81964844 17.54152344 -9.40101563 16.78226563 -10 16 C-10.66 16 -11.32 16 -12 16 Z " fill="#F5E46D" transform="translate(430,104)"/>
<path d="M0 0 C1.99954746 -0.04254356 4.00041636 -0.04080783 6 0 C12.15069745 6.15069745 10.06625349 30.618977 10.1875 38.5 C9.97751487 74.02248513 9.97751487 74.02248513 6 78 C4.00041636 78.04080783 1.99954746 78.04254356 0 78 C0.14415198 76.1873655 0.29042636 74.37489978 0.4375 72.5625 C0.51871094 71.55316406 0.59992188 70.54382813 0.68359375 69.50390625 C0.90436789 67.05903709 1.18953552 64.61950245 1.5234375 62.1875 C2.28269921 55.42530315 2.18600155 48.61502525 2.18530273 41.8190918 C2.18747269 39.46709629 2.20563241 37.11558379 2.22460938 34.76367188 C2.25663788 25.81974226 1.72264748 17.193283 0.4309082 8.34008789 C0.06498569 5.50372191 -0.08584459 2.85255124 0 0 Z " fill="#FBEC76" transform="translate(451,201)"/>
<path d="M0 0 C2.31 0 4.62 0 7 0 C6.86722656 0.93199219 6.73445313 1.86398438 6.59765625 2.82421875 C3.47347259 25.37763218 3.2010665 47.39595476 6 70 C6.09555176 70.77375977 6.19110352 71.54751953 6.28955078 72.34472656 C6.52408532 74.23010297 6.7617034 76.11509539 7 78 C4.69 78 2.38 78 0 78 C-4.99076813 52.68967589 -4.99076813 25.31032411 0 0 Z " fill="#AD8501" transform="translate(28,201)"/>
<path d="M0 0 C2.44287109 0.16015625 2.44287109 0.16015625 5 1 C6.16259766 2.93359375 6.16259766 2.93359375 6.9140625 5.4375 C7.20023438 6.33210938 7.48640625 7.22671875 7.78125 8.1484375 C8.0596875 9.08945312 8.338125 10.03046875 8.625 11 C9.18986547 12.85744051 9.76489479 14.71183005 10.3515625 16.5625 C10.59729004 17.38878906 10.84301758 18.21507812 11.09619141 19.06640625 C11.39444824 19.70449219 11.69270508 20.34257812 12 21 C12.99 21.33 13.98 21.66 15 22 C16.62493901 20.87890434 16.62493901 20.87890434 18 19 C18.25048636 15.87450983 18.25048636 15.87450983 18 13 C19.65 12.67 21.3 12.34 23 12 C24.83626701 14.70039267 24.99597623 16.11065361 24.875 19.4375 C23.89758691 23.4169676 23.05062855 25.27049024 20 28 C16.09359868 29.15745224 13.73734696 29.20240897 9.8125 28.125 C5.77940307 25.07777121 4.68874351 21.66149035 3 17 C2.43925781 15.58460938 2.43925781 15.58460938 1.8671875 14.140625 C-1.36709287 5.77220727 -1.36709287 5.77220727 -1 1 C-0.67 0.67 -0.34 0.34 0 0 Z " fill="#AE8603" transform="translate(22,298)"/>
<path d="M0 0 C2.96379255 0.60930225 5.91725385 1.25357515 8.86816406 1.92260742 C9.25035173 3.578754 9.58211508 5.24717767 9.86816406 6.92260742 C9.53816406 7.25260742 9.20816406 7.58260742 8.86816406 7.92260742 C6.94851812 7.85783409 5.03112873 7.72024082 3.11816406 7.54760742 C1.54808594 7.41225586 1.54808594 7.41225586 -0.05371094 7.27416992 C-3.13183594 6.92260742 -3.13183594 6.92260742 -5.78417969 6.38745117 C-8.91752299 5.76703877 -11.94735014 5.86016652 -15.13183594 5.92260742 C-15.13183594 7.57260742 -15.13183594 9.22260742 -15.13183594 10.92260742 C-13.15183594 11.91260742 -11.17183594 12.90260742 -9.13183594 13.92260742 C-9.46183594 15.57260742 -9.79183594 17.22260742 -10.13183594 18.92260742 C-17.35405816 18.44112594 -17.35405816 18.44112594 -20.56933594 16.29760742 C-22.69189389 13.07131933 -23.06538045 10.77702584 -23.13183594 6.92260742 C-19.02947122 -3.94865907 -9.66743004 -1.87269459 0 0 Z " fill="#CDAF31" transform="translate(214.1318359375,433.077392578125)"/>
<path d="M0 0 C3.35464996 0.72499761 4.74853454 1.9641936 7.1328125 4.4609375 C8.74758366 7.69269284 9.88150559 11.0330469 11.0078125 14.4609375 C11.3275 15.36328125 11.6471875 16.265625 11.9765625 17.1953125 C14.46712934 24.51541329 14.46712934 24.51541329 13.1328125 28.4609375 C11.4828125 28.4609375 9.8328125 28.4609375 8.1328125 28.4609375 C7.9469458 27.86031494 7.7610791 27.25969238 7.56958008 26.64086914 C6.7165295 23.92766883 5.8314859 21.22599117 4.9453125 18.5234375 C4.65333984 17.57791016 4.36136719 16.63238281 4.06054688 15.65820312 C3.76083984 14.75908203 3.46113281 13.85996094 3.15234375 12.93359375 C2.88526611 12.10093994 2.61818848 11.26828613 2.34301758 10.41040039 C1.25861835 8.18184963 1.25861835 8.18184963 -1.4934082 7.68139648 C-2.27675537 7.60864502 -3.06010254 7.53589355 -3.8671875 7.4609375 C-4.77777281 10.53416294 -4.95604934 13.26191111 -4.8671875 16.4609375 C-8.6171875 17.5859375 -8.6171875 17.5859375 -10.8671875 16.4609375 C-12.0283165 12.23547559 -12.34039957 8.57298587 -10.6171875 4.5234375 C-7.381956 0.71048609 -4.87116925 0.21012887 0 0 Z " fill="#B18A07" transform="translate(47.8671875,290.5390625)"/>
<path d="M0 0 C2.9375 1.4375 2.9375 1.4375 5 4 C6.83132843 10.65859301 5.51762221 16.12039667 3.1875 22.4375 C2.91357422 23.23865234 2.63964844 24.03980469 2.35742188 24.86523438 C0.31176948 30.68823052 0.31176948 30.68823052 -2 33 C-4.0625 32.8125 -4.0625 32.8125 -6 32 C-7.11862785 28.64411644 -6.91976372 28.08149178 -5.75 24.91015625 C-5.4715625 24.12576172 -5.193125 23.34136719 -4.90625 22.53320312 C-4.30334605 20.88951025 -3.69918432 19.24627816 -3.09375 17.60351562 C-2.8153125 16.81783203 -2.536875 16.03214844 -2.25 15.22265625 C-1.85554688 14.15156616 -1.85554688 14.15156616 -1.453125 13.05883789 C-0.93321721 10.69656291 -1.24341164 9.27200162 -2 7 C-4.44480079 7.18828772 -4.44480079 7.18828772 -7 8 C-8.36020151 9.96758273 -8.36020151 9.96758273 -9 12 C-10.65 11.67 -12.3 11.34 -14 11 C-13.76928323 7.0009094 -13.56356875 4.66603579 -10.9375 1.5625 C-7.11701806 -0.46967125 -4.23694002 -0.8131501 0 0 Z " fill="#B18B08" transform="translate(54,158)"/>
<path d="M0 0 C1.2065625 0.0309375 1.2065625 0.0309375 2.4375 0.0625 C2.00034396 6.61984057 0.56709634 12.1052942 -1.72265625 18.265625 C-2.55367084 21.03309683 -2.72476538 23.19406677 -2.5625 26.0625 C0.42902582 25.28770264 0.42902582 25.28770264 3.4375 24.0625 C3.7675 23.0725 4.0975 22.0825 4.4375 21.0625 C6.375 20.3125 6.375 20.3125 8.4375 20.0625 C9.0975 20.3925 9.7575 20.7225 10.4375 21.0625 C10.1546537 24.73950184 9.91877046 27.35910472 7.8125 30.4375 C4.59342034 32.64002819 2.32760867 32.99542916 -1.5625 33.0625 C-4.77179055 31.91199961 -6.82028834 31.00713303 -8.9375 28.3125 C-10.78560854 21.65930925 -8.83626219 15.93165913 -6.625 9.6875 C-6.34720703 8.86894531 -6.06941406 8.05039063 -5.78320312 7.20703125 C-3.3311298 0.08124707 -3.3311298 0.08124707 0 0 Z " fill="#AD8602" transform="translate(32.5625,151.9375)"/>
<path d="M0 0 C4.13998349 -0.32470459 6.33999001 -0.4304413 9.875 1.875 C12.78710658 4.78710658 12.96068305 5.6002777 13.375 9.8125 C13.35511166 13.45869525 13.06608692 13.92035679 10.5625 16.9375 C9.716875 17.618125 8.87125 18.29875 8 19 C7.67 19.33 7.34 19.66 7 20 C-1.3657246 20.40061216 -9.68764305 19.94998365 -18 19 C-18.38218767 17.34385343 -18.71395102 15.67542976 -19 14 C-18 13 -18 13 -15.89868164 12.90234375 C-14.54311157 12.91974609 -14.54311157 12.91974609 -13.16015625 12.9375 C-12.17982422 12.94523437 -11.19949219 12.95296875 -10.18945312 12.9609375 C-8.10872335 12.98693038 -6.02799418 13.01297186 -3.94726562 13.0390625 C-2.96564453 13.04679687 -1.98402344 13.05453125 -0.97265625 13.0625 C-0.06781494 13.07410156 0.83702637 13.08570313 1.76928711 13.09765625 C4.03946784 13.15012727 4.03946784 13.15012727 6 12 C5.67 10.35 5.34 8.7 5 7 C3.02 6.34 1.04 5.68 -1 5 C-0.67 3.35 -0.34 1.7 0 0 Z " fill="#D7BC40" transform="translate(258,25)"/>
<path d="M0 0 C4.82109075 0.32871073 7.74624087 1.37438269 11 5 C12.36595966 9.00569764 12.44063892 11.98653049 10.75 15.875 C8.70893565 18.35343529 7.0773913 19.85079293 3.828125 20.30078125 C-4.3883371 20.3381288 -12.02748189 18.80753447 -20 17 C-20.33 15.35 -20.66 13.7 -21 12 C-17.04998557 10.96736369 -14.17337812 11.13823479 -10.1875 11.9375 C-5.33487333 12.83124706 -0.92267124 13.18933351 4 13 C4 11.35 4 9.7 4 8 C2.02 7.01 0.04 6.02 -2 5 C-1.125 1.125 -1.125 1.125 0 0 Z " fill="#CDB032" transform="translate(209,447)"/>
<path d="M0 0 C0 1.65 0 3.3 0 5 C-5.75566293 6.54960156 -11.46215337 7.59124351 -17.36328125 8.4375 C-20.21382552 8.8761261 -20.21382552 8.8761261 -23 11 C-22.67 12.32 -22.34 13.64 -22 15 C-19.69 15.33 -17.38 15.66 -15 16 C-14.67 17.65 -14.34 19.3 -14 21 C-16.65561732 22.80581977 -18.17110233 23 -21.4375 23 C-26.07870639 21.69720522 -27.50414018 20.08413426 -30 16 C-30.77989532 11.63258619 -30.44354231 9.737671 -28.15625 5.93359375 C-24.39361589 1.63133106 -19.27600371 1.3505842 -13.875 0.5625 C-12.37259766 0.30436523 -12.37259766 0.30436523 -10.83984375 0.04101562 C-3.47855171 -1.15951724 -3.47855171 -1.15951724 0 0 Z " fill="#CCAE30" transform="translate(219,12)"/>
<path d="M0 0 C2.77428577 1.26103899 4.48317435 2.31089914 6.3125 4.75 C7.64671825 9.11653244 7.66373236 12.60932267 5.6875 16.75 C1.61736141 20.15755789 -2.87975685 20.92953981 -8 22 C-9.546875 22.3403125 -9.546875 22.3403125 -11.125 22.6875 C-15.08916605 23.11838761 -19.0169701 23.0796606 -23 23 C-23 21.35 -23 19.7 -23 18 C-15.67349113 16.30142762 -8.34467941 14.61831919 -1 13 C-0.4465236 10.92446352 0 9.15634036 0 7 C-1.670625 7.061875 -1.670625 7.061875 -3.375 7.125 C-7 7 -7 7 -9 5 C-8.75 2.9375 -8.75 2.9375 -8 1 C-5.17998673 -0.41000664 -3.12992745 -0.24548451 0 0 Z " fill="#CEB133" transform="translate(216,26)"/>
<path d="M0 0 C0.87914062 0.00451172 1.75828125 0.00902344 2.6640625 0.01367188 C4.81773803 0.02537663 6.97137817 0.04330931 9.125 0.0625 C9.75 1.9375 9.75 1.9375 10.125 4.0625 C7.63595532 6.55154468 6.56650596 6.41778113 3.1171875 6.6953125 C2.13105469 6.77910156 1.14492188 6.86289062 0.12890625 6.94921875 C-0.90363281 7.02785156 -1.93617188 7.10648437 -3 7.1875 C-4.04027344 7.27386719 -5.08054688 7.36023438 -6.15234375 7.44921875 C-8.72601589 7.66172379 -11.30008017 7.86579156 -13.875 8.0625 C-14.5564823 9.95429203 -14.5564823 9.95429203 -14.875 12.0625 C-12.3095406 14.6279594 -10.39813332 14.60296087 -6.875 15.0625 C-6.875 16.7125 -6.875 18.3625 -6.875 20.0625 C-13.05902282 21.39630884 -13.05902282 21.39630884 -16.625 19.9375 C-19.24247781 17.75626849 -20.58001017 16.22803069 -21.875 13.0625 C-21.875 8.71355455 -21.33106352 6.66189777 -18.6875 3.1875 C-13.2589782 -0.91404981 -6.53362603 -0.06395869 0 0 Z " fill="#D5BB3E" transform="translate(260.875,434.9375)"/>
<path d="M0 0 C4.97333608 -0.29254918 8.0436971 -0.16504232 12 3 C14.32826375 6.21522137 14.39711181 9.10830425 14 13 C12.27066592 16.80453498 10.85287326 18.47738686 7 20 C-0.59427584 21.09077675 -8.33901241 21.15564083 -16 21 C-16.38218767 19.34385343 -16.71395102 17.67542976 -17 16 C-15.32352563 14.32352563 -13.17415464 14.65361923 -10.87109375 14.46484375 C-9.83662109 14.37783203 -8.80214844 14.29082031 -7.73632812 14.20117188 C-6.64771484 14.11416016 -5.55910156 14.02714844 -4.4375 13.9375 C-3.34501953 13.84662109 -2.25253906 13.75574219 -1.12695312 13.66210938 C1.58172492 13.43737189 4.29068166 13.21685911 7 13 C6.67 11.02 6.34 9.04 6 7 C3.69 6.34 1.38 5.68 -1 5 C-0.67 3.35 -0.34 1.7 0 0 Z " fill="#D7BC40" transform="translate(258,449)"/>
<path d="M0 0 C1.46083008 0.06574219 1.46083008 0.06574219 2.95117188 0.1328125 C3.96630859 0.184375 4.98144531 0.2359375 6.02734375 0.2890625 C7.04634766 0.33289062 8.06535156 0.37671875 9.11523438 0.421875 C16.70471326 0.78399725 16.70471326 0.78399725 18.96484375 1.9140625 C18.96484375 3.5640625 18.96484375 5.2140625 18.96484375 6.9140625 C10.71484375 6.9140625 2.46484375 6.9140625 -6.03515625 6.9140625 C-6.03515625 8.5640625 -6.03515625 10.2140625 -6.03515625 11.9140625 C-2.57015625 13.3990625 -2.57015625 13.3990625 0.96484375 14.9140625 C0.96484375 16.5640625 0.96484375 18.2140625 0.96484375 19.9140625 C-6.06169347 20.3904379 -6.06169347 20.3904379 -9.97265625 18.4765625 C-12.49212281 15.34631616 -13.05993251 13.13736747 -13.30859375 9.171875 C-12.8271612 5.19661765 -10.95740619 3.57065335 -8.03515625 0.9140625 C-4.98086921 -0.10403318 -3.1762209 -0.14495966 0 0 Z " fill="#D6BB3F" transform="translate(253.03515625,10.0859375)"/>
<path d="M0 0 C2.234375 -0.29296875 2.234375 -0.29296875 5 0 C8.51669072 3.2022421 11.18813605 7.1751526 14 11 C14.43022461 11.57169922 14.86044922 12.14339844 15.30371094 12.73242188 C23.09488069 23.12451 23.09488069 23.12451 22.7421875 26.37890625 C22.49726563 26.91386719 22.25234375 27.44882812 22 28 C15.50149789 27.48446121 9.33773468 26.53332291 3 25 C2.375 23.125 2.375 23.125 2 21 C4 19 4 19 7.625 18.875 C9.295625 18.936875 9.295625 18.936875 11 19 C10.2059375 18.04738281 9.411875 17.09476562 8.59375 16.11328125 C7.56186225 14.84687355 6.5306472 13.57991751 5.5 12.3125 C4.71302734 11.37374023 4.71302734 11.37374023 3.91015625 10.41601562 C0.07693633 5.66182728 0.07693633 5.66182728 -0.34375 2.04296875 C-0.2303125 1.36878906 -0.116875 0.69460938 0 0 Z " fill="#EDD961" transform="translate(369,389)"/>
<path d="M0 0 C14.42308253 1.14421114 14.42308253 1.14421114 19 3 C19.33 3.99 19.66 4.98 20 6 C19.01 7.485 19.01 7.485 18 9 C14.375 9.1875 14.375 9.1875 11 9 C11.71027344 9.88042969 12.42054688 10.76085937 13.15234375 11.66796875 C14.08120294 12.84077076 15.0095622 14.01396884 15.9375 15.1875 C16.64036133 16.0547168 16.64036133 16.0547168 17.35742188 16.93945312 C19.94770211 20.23786752 21.61816111 22.68603299 22 27 C20.35 27.33 18.7 27.66 17 28 C14.41406781 24.89443605 11.85171877 21.77106441 9.31396484 18.62597656 C8.43771326 17.54165185 7.55781824 16.46026138 6.67431641 15.38183594 C5.39176453 13.80838124 4.13140644 12.219371 2.875 10.625 C1.72644531 9.19027344 1.72644531 9.19027344 0.5546875 7.7265625 C-1 5 -1 5 -0.7421875 2.1484375 C-0.49726563 1.43945312 -0.25234375 0.73046875 0 0 Z " fill="#E9D45C" transform="translate(349,404)"/>
<path d="M0 0 C1.32 0 2.64 0 4 0 C4.66064453 1.74267578 4.66064453 1.74267578 5 4 C3.99951172 6.01123047 3.99951172 6.01123047 2.4296875 8.1171875 C1.8625 8.88933594 1.2953125 9.66148438 0.7109375 10.45703125 C0.10507812 11.25496094 -0.50078125 12.05289063 -1.125 12.875 C-1.70765625 13.66519531 -2.2903125 14.45539063 -2.890625 15.26953125 C-6.12800167 19.6320052 -9.47694047 23.86539051 -13 28 C-14.65 27.67 -16.3 27.34 -18 27 C-19.32594359 21.03325384 -19.0884587 15.07416385 -19 9 C-17.35 8.67 -15.7 8.34 -14 8 C-13.34 10.31 -12.68 12.62 -12 15 C-11.30132812 14.08476563 -10.60265625 13.16953125 -9.8828125 12.2265625 C-8.96361862 11.02598274 -8.04434356 9.82546514 -7.125 8.625 C-6.66480469 8.02171875 -6.20460938 7.4184375 -5.73046875 6.796875 C-3.90627059 4.41748609 -2.12258788 2.12258788 0 0 Z " fill="#EDD961" transform="translate(387,63)"/>
<path d="M0 0 C2.475 0.495 2.475 0.495 5 1 C6.0712828 7.02596573 6.09945415 12.88909517 6 19 C4.35 19.33 2.7 19.66 1 20 C0.34 17.36 -0.32 14.72 -1 12 C-1.53109375 12.73605469 -2.0621875 13.47210938 -2.609375 14.23046875 C-3.31578125 15.20628906 -4.0221875 16.18210937 -4.75 17.1875 C-5.44609375 18.15042969 -6.1421875 19.11335938 -6.859375 20.10546875 C-7.56578125 21.06066406 -8.2721875 22.01585938 -9 23 C-9.66515625 23.94488281 -10.3303125 24.88976562 -11.015625 25.86328125 C-11.67046875 26.56839844 -12.3253125 27.27351563 -13 28 C-14.32 28 -15.64 28 -17 28 C-18.32423863 23.62633274 -18.32423863 23.62633274 -16.8918457 20.859375 C-16.0423938 19.81523438 -16.0423938 19.81523438 -15.17578125 18.75 C-14.55896484 17.9765625 -13.94214844 17.203125 -13.30664062 16.40625 C-12.64857422 15.6121875 -11.99050781 14.818125 -11.3125 14 C-10.67376953 13.2059375 -10.03503906 12.411875 -9.37695312 11.59375 C-7.59723342 9.38520435 -5.8002139 7.19184124 -4 5 C-2.66433733 3.33519947 -1.32963549 1.66961823 0 0 Z " fill="#EAD55C" transform="translate(366,48)"/>
<path d="M0 0 C0.53109375 0.2371875 1.0621875 0.474375 1.609375 0.71875 C1.939375 2.03875 2.269375 3.35875 2.609375 4.71875 C1.07216797 5.71455078 1.07216797 5.71455078 -0.49609375 6.73046875 C-1.85697669 7.62208171 -3.21764229 8.51402646 -4.578125 9.40625 C-5.58842773 10.05883789 -5.58842773 10.05883789 -6.61914062 10.72460938 C-10.63434421 13.36876783 -14.29014231 15.9872493 -17.390625 19.71875 C-17.24449605 23.41307511 -17.24449605 23.41307511 -16.390625 26.71875 C-17.390625 27.71875 -17.390625 27.71875 -19.953125 27.78125 C-20.7575 27.760625 -21.561875 27.74 -22.390625 27.71875 C-24.32900821 24.07002867 -24.85637724 20.8655466 -24.1640625 16.7578125 C-21.6888104 10.23214788 -6.96444237 -0.81934616 0 0 Z " fill="#B28C09" transform="translate(68.390625,332.28125)"/>
<path d="M0 0 C6.61603127 0.46591769 10.91722762 3.97091529 16.16601562 7.66992188 C18.08537809 8.95131961 19.87245819 10.10420805 22 11 C24.86319027 10.54809098 24.86319027 10.54809098 27 9 C29.1875 7.8125 29.1875 7.8125 31 7 C31.66 7.33 32.32 7.66 33 8 C33.3125 10.25 33.3125 10.25 33 13 C30.45876946 15.7722515 28.37382569 16.87539144 24.8125 18.0625 C15.17458342 17.90450137 6.62662928 10.28098213 -1 5 C-0.67 3.35 -0.34 1.7 0 0 Z " fill="#B28C09" transform="translate(42,127)"/>
<path d="M0 0 C5.12638606 0.52166747 8.81262537 3.05438749 13.0625 5.75 C13.76955078 6.18054688 14.47660156 6.61109375 15.20507812 7.0546875 C19.21839175 9.57195839 22.45244915 11.89525054 25 16 C25.4609375 18.3515625 25.4609375 18.3515625 25.375 20.625 C25.35566406 21.75808594 25.35566406 21.75808594 25.3359375 22.9140625 C25 25 25 25 23 28 C21.35 27.67 19.7 27.34 18 27 C18.08411133 26.4126709 18.16822266 25.8253418 18.25488281 25.22021484 C18.72182748 20.46405418 18.72182748 20.46405418 16.65820312 16.36816406 C14.75190823 14.95965844 12.82104647 13.77728279 10.75 12.625 C9.39037023 11.80510984 8.03098827 10.98480857 6.671875 10.1640625 C6.03314453 9.79313477 5.39441406 9.42220703 4.73632812 9.04003906 C2.71230444 7.82767392 0.8426391 6.47221165 -1 5 C-0.67 3.35 -0.34 1.7 0 0 Z " fill="#B48F0D" transform="translate(56,105)"/>
<path d="M0 0 C-0.0859375 2.2109375 -0.0859375 2.2109375 -1 5 C-3.20493993 6.7793215 -5.21558371 8.19023465 -7.625 9.625 C-8.22957031 10.0065625 -8.83414063 10.388125 -9.45703125 10.78125 C-19.52040155 17.00380307 -19.52040155 17.00380307 -24.546875 16.99609375 C-30.42759993 15.50505888 -30.42759993 15.50505888 -33.125 13.125 C-34.16154449 10.60767767 -33.98191224 9.49941298 -33 7 C-31.35 7 -29.7 7 -28 7 C-27.67 7.66 -27.34 8.32 -27 9 C-24.57306413 10.01604907 -23.43408099 10.16682654 -20.95703125 9.21484375 C-20.24933594 8.79332031 -19.54164062 8.37179687 -18.8125 7.9375 C-18.03003906 7.47988281 -17.24757813 7.02226562 -16.44140625 6.55078125 C-13.24047735 4.51755121 -10.17128385 2.31766897 -7.140625 0.0390625 C-4.38064605 -1.30063531 -2.88221041 -0.856601 0 0 Z " fill="#B48E0C" transform="translate(84,355)"/>
<path d="M0 0 C2.125 0.9375 2.125 0.9375 4 2 C3.40919923 8.49880851 1.32324373 14.21849521 -0.9375 20.3125 C-1.29779297 21.31345703 -1.65808594 22.31441406 -2.02929688 23.34570312 C-4.74058835 30.74058835 -4.74058835 30.74058835 -7 33 C-9.125 32.625 -9.125 32.625 -11 32 C-10.50447545 24.62049587 -8.65588417 18.40345095 -6.0625 11.5 C-5.70220703 10.4996875 -5.34191406 9.499375 -4.97070312 8.46875 C-2.26434298 1.13217149 -2.26434298 1.13217149 0 0 Z " fill="#C7A728" transform="translate(174,424)"/>
<path d="M0 0 C1.9453125 0.18359375 1.9453125 0.18359375 4 1 C5.0546875 2.72265625 5.0546875 2.72265625 5.875 5.0625 C6.19597656 5.95453125 6.51695312 6.8465625 6.84765625 7.765625 C7.22792969 8.83296875 7.60820312 9.9003125 8 11 C8.53568326 12.35082416 9.07635455 13.69967729 9.62109375 15.046875 C10.18523289 16.46861631 10.74903499 17.89049139 11.3125 19.3125 C11.5914209 19.9938501 11.8703418 20.6752002 12.15771484 21.37719727 C13.67769353 25.30759351 14.34109598 27.9453414 13 32 C11.68 32 10.36 32 9 32 C6.17526042 26.55930593 3.78718054 21.15394071 1.75 15.375 C1.481875 14.65054688 1.21375 13.92609375 0.9375 13.1796875 C-0.54810809 8.99573003 -1.41603475 5.50704311 -1 1 C-0.67 0.67 -0.34 0.34 0 0 Z " fill="#C7A728" transform="translate(164,23)"/>
<path d="M0 0 C1.65 0 3.3 0 5 0 C5.48374025 6.9436882 3.69059021 13.23986896 2 19.9375 C1.71382813 21.09830078 1.42765625 22.25910156 1.1328125 23.45507812 C0.42906533 26.30525417 -0.28205799 29.15337266 -1 32 C-2.65614657 32.38218767 -4.32457024 32.71395102 -6 33 C-6.33 32.67 -6.66 32.34 -7 32 C-6.87855334 24.99181331 -5.26673714 18.24388807 -3.5 11.5 C-3.27441406 10.60796875 -3.04882812 9.7159375 -2.81640625 8.796875 C-1.15576475 2.3115295 -1.15576475 2.3115295 0 0 Z " fill="#DDC449" transform="translate(293,16)"/>
<path d="M0 0 C1.67542976 0.28604898 3.34385343 0.61781233 5 1 C6.01130015 5.03892479 7.00702504 9.08153439 8 13.125 C8.28617187 14.26710938 8.57234375 15.40921875 8.8671875 16.5859375 C9.13789063 17.69453125 9.40859375 18.803125 9.6875 19.9453125 C10.06455078 21.46922607 10.06455078 21.46922607 10.44921875 23.02392578 C11.0154132 26.08328319 11.09712468 28.89605695 11 32 C8.525 32.495 8.525 32.495 6 33 C5.20532858 30.18831904 4.41420767 27.37571498 3.625 24.5625 C3.40328125 23.77939453 3.1815625 22.99628906 2.953125 22.18945312 C-1.49597945 6.2904475 -1.49597945 6.2904475 -1 1 C-0.67 0.67 -0.34 0.34 0 0 Z " fill="#DDC449" transform="translate(287,431)"/>
<path d="M0 0 C3.69230769 0.69230769 3.69230769 0.69230769 5 2 C5.04080783 3.99958364 5.04254356 6.00045254 5 8 C3.35 8 1.7 8 0 8 C-0.38063221 5.6739143 -0.71269945 3.33944736 -1 1 C-0.67 0.67 -0.34 0.34 0 0 Z " fill="#E3CD53" transform="translate(325,431)"/>
<path d="M0 0 C1.65 0 3.3 0 5 0 C5.125 2.875 5.125 2.875 5 6 C4.34 6.66 3.68 7.32 3 8 C0.875 7.625 0.875 7.625 -1 7 C-0.67 4.69 -0.34 2.38 0 0 Z " fill="#E3CD53" transform="translate(325,41)"/>
</svg>
